<svg width="54" height="54" viewBox="0 0 54 54" fill="none" xmlns="http://www.w3.org/2000/svg">
<g filter="url(#filter0_d_3568_7479)">
<rect x="2" width="50" height="50" rx="25" fill="#2CCD70" shape-rendering="crispEdges"/>
<path d="M17 17L17 33" stroke="white" stroke-width="3" stroke-linecap="round"/>
<mask id="path-3-inside-1_3568_7479" fill="white">
<path fill-rule="evenodd" clip-rule="evenodd" d="M30 31V32C30 32.5523 30.4477 33 31 33H37.155C37.7843 33 38.2572 32.4256 38.1364 31.808L37.0376 26.192C37.0128 26.0652 37.0128 25.9348 37.0376 25.808L38.1364 20.192C38.2572 19.5744 37.7843 19 37.155 19H35V31H30Z"/>
</mask>
<path fill-rule="evenodd" clip-rule="evenodd" d="M30 31V32C30 32.5523 30.4477 33 31 33H37.155C37.7843 33 38.2572 32.4256 38.1364 31.808L37.0376 26.192C37.0128 26.0652 37.0128 25.9348 37.0376 25.808L38.1364 20.192C38.2572 19.5744 37.7843 19 37.155 19H35V31H30Z" fill="white"/>
<path d="M30 31V29C28.8954 29 28 29.8954 28 31H30ZM38.1364 31.808L36.1736 32.192L36.1736 32.192L38.1364 31.808ZM37.0376 26.192L39.0004 25.808L39.0004 25.808L37.0376 26.192ZM37.0376 25.808L39.0004 26.192L39.0004 26.192L37.0376 25.808ZM38.1364 20.192L36.1736 19.808L36.1736 19.808L38.1364 20.192ZM35 19V17C33.8954 17 33 17.8954 33 19H35ZM35 31V33C36.1046 33 37 32.1046 37 31H35ZM32 32V31H28V32H32ZM31 31C31.5523 31 32 31.4477 32 32H28C28 33.6569 29.3431 35 31 35V31ZM37.155 31H31V35H37.155V31ZM36.1736 32.192C36.0527 31.5744 36.5256 31 37.155 31V35C39.043 35 40.4617 33.2768 40.0992 31.4239L36.1736 32.192ZM35.0748 26.576L36.1736 32.192L40.0992 31.424L39.0004 25.808L35.0748 26.576ZM35.0748 25.4239C35.0004 25.8044 35.0004 26.1956 35.0748 26.5761L39.0004 25.808C39.0252 25.9348 39.0252 26.0652 39.0004 26.192L35.0748 25.4239ZM36.1736 19.808L35.0748 25.424L39.0004 26.192L40.0992 20.576L36.1736 19.808ZM37.155 21C36.5256 21 36.0527 20.4256 36.1736 19.808L40.0992 20.576C40.4617 18.7232 39.043 17 37.155 17V21ZM35 21H37.155V17H35V21ZM33 19V31H37V19H33ZM35 29H30V33H35V29Z" fill="white" mask="url(#path-3-inside-1_3568_7479)"/>
<mask id="path-5-inside-2_3568_7479" fill="white">
<path fill-rule="evenodd" clip-rule="evenodd" d="M33 17H18V30H34V18C34 17.4477 33.5523 17 33 17ZM30.7109 20.7921C31.1214 20.3567 31.0911 19.6802 30.6433 19.2811C30.1955 18.882 29.4996 18.9114 29.0891 19.3468L23.85 24.9035L21.9109 22.8468C21.5004 22.4114 20.8045 22.382 20.3567 22.7811C19.9089 23.1802 19.8786 23.8567 20.2891 24.2921L23.0391 27.2088C23.2475 27.4297 23.5417 27.5556 23.85 27.5556C24.1583 27.5556 24.4525 27.4297 24.6609 27.2088L30.7109 20.7921Z"/>
</mask>
<path fill-rule="evenodd" clip-rule="evenodd" d="M33 17H18V30H34V18C34 17.4477 33.5523 17 33 17ZM30.7109 20.7921C31.1214 20.3567 31.0911 19.6802 30.6433 19.2811C30.1955 18.882 29.4996 18.9114 29.0891 19.3468L23.85 24.9035L21.9109 22.8468C21.5004 22.4114 20.8045 22.382 20.3567 22.7811C19.9089 23.1802 19.8786 23.8567 20.2891 24.2921L23.0391 27.2088C23.2475 27.4297 23.5417 27.5556 23.85 27.5556C24.1583 27.5556 24.4525 27.4297 24.6609 27.2088L30.7109 20.7921Z" fill="white"/>
<path d="M18 17V16C17.4477 16 17 16.4477 17 17H18ZM18 30H17C17 30.5523 17.4477 31 18 31V30ZM34 30V31C34.5523 31 35 30.5523 35 30H34ZM30.6433 19.2811L29.978 20.0277L29.978 20.0277L30.6433 19.2811ZM30.7109 20.7921L29.9833 20.1061L29.9833 20.1061L30.7109 20.7921ZM29.0891 19.3468L29.8167 20.0328V20.0328L29.0891 19.3468ZM23.85 24.9035L23.1224 25.5895C23.3114 25.7899 23.5746 25.9035 23.85 25.9035C24.1254 25.9035 24.3886 25.7899 24.5776 25.5895L23.85 24.9035ZM21.9109 22.8468L22.6385 22.1608L21.9109 22.8468ZM20.2891 24.2921L21.0167 23.6061L21.0167 23.6061L20.2891 24.2921ZM23.0391 27.2088L22.3115 27.8948L22.3115 27.8948L23.0391 27.2088ZM24.6609 27.2088L23.9333 26.5227H23.9333L24.6609 27.2088ZM18 18H33V16H18V18ZM19 30V17H17V30H19ZM34 29H18V31H34V29ZM33 18V30H35V18H33ZM33 18H35C35 16.8954 34.1046 16 33 16V18ZM29.978 20.0277C29.9885 20.037 29.9931 20.0447 29.9955 20.0498C29.9982 20.0555 29.9997 20.0616 30 20.0677C30.0002 20.0738 29.9993 20.0795 29.9974 20.0848C29.9957 20.0894 29.9922 20.0966 29.9833 20.1061L31.4385 21.4781C32.237 20.6311 32.1752 19.3068 31.3086 18.5346L29.978 20.0277ZM29.8167 20.0328C29.833 20.0156 29.8586 20.0016 29.8944 20.0001C29.9303 19.9986 29.9586 20.0104 29.978 20.0277L31.3086 18.5346C30.4583 17.7767 29.1449 17.8299 28.3615 18.6608L29.8167 20.0328ZM24.5776 25.5895L29.8167 20.0328L28.3615 18.6608L23.1224 24.2174L24.5776 25.5895ZM21.1833 23.5328L23.1224 25.5895L24.5776 24.2174L22.6385 22.1608L21.1833 23.5328ZM21.022 23.5277C21.0414 23.5104 21.0697 23.4986 21.1056 23.5001C21.1414 23.5016 21.167 23.5156 21.1833 23.5328L22.6385 22.1608C21.8551 21.3299 20.5417 21.2767 19.6914 22.0346L21.022 23.5277ZM21.0167 23.6061C21.0078 23.5966 21.0043 23.5894 21.0026 23.5848C21.0007 23.5795 20.9998 23.5738 21 23.5677C21.0003 23.5616 21.0018 23.5555 21.0045 23.5498C21.0069 23.5447 21.0115 23.537 21.022 23.5277L19.6914 22.0346C18.8248 22.8068 18.763 24.1311 19.5615 24.9781L21.0167 23.6061ZM23.7667 26.5227L21.0167 23.6061L19.5615 24.9781L22.3115 27.8948L23.7667 26.5227ZM23.85 26.5556C23.8123 26.5556 23.7829 26.5399 23.7667 26.5227L22.3115 27.8948C22.7121 28.3196 23.271 28.5556 23.85 28.5556V26.5556ZM23.9333 26.5227C23.9171 26.5399 23.8877 26.5556 23.85 26.5556V28.5556C24.429 28.5556 24.9879 28.3196 25.3885 27.8948L23.9333 26.5227ZM29.9833 20.1061L23.9333 26.5227L25.3885 27.8948L31.4385 21.4781L29.9833 20.1061Z" fill="white" mask="url(#path-5-inside-2_3568_7479)"/>
</g>
<defs>
<filter id="filter0_d_3568_7479" x="0" y="0" width="54" height="54" filterUnits="userSpaceOnUse" color-interpolation-filters="sRGB">
<feFlood flood-opacity="0" result="BackgroundImageFix"/>
<feColorMatrix in="SourceAlpha" type="matrix" values="0 0 0 0 0 0 0 0 0 0 0 0 0 0 0 0 0 0 127 0" result="hardAlpha"/>
<feOffset dy="2"/>
<feGaussianBlur stdDeviation="1"/>
<feComposite in2="hardAlpha" operator="out"/>
<feColorMatrix type="matrix" values="0 0 0 0 0 0 0 0 0 0 0 0 0 0 0 0 0 0 0.25 0"/>
<feBlend mode="normal" in2="BackgroundImageFix" result="effect1_dropShadow_3568_7479"/>
<feBlend mode="normal" in="SourceGraphic" in2="effect1_dropShadow_3568_7479" result="shape"/>
</filter>
</defs>
</svg>
