<svg width="54" height="54" viewBox="0 0 54 54" fill="none" xmlns="http://www.w3.org/2000/svg">
<g filter="url(#filter0_d_3568_7837)">
<rect x="2" width="50" height="50" rx="25" fill="#FF7A00" shape-rendering="crispEdges"/>
<path d="M17 17L17 33" stroke="white" stroke-width="3" stroke-linecap="round"/>
<mask id="path-3-inside-1_3568_7837" fill="white">
<path fill-rule="evenodd" clip-rule="evenodd" d="M18 17C17.4477 17 17 17.4477 17 18V31C17 31.5523 17.4477 32 18 32H36.5723C37.2663 32 37.7493 31.3104 37.5121 30.6583L35.397 24.8417C35.3167 24.621 35.3167 24.379 35.397 24.1583L37.5121 18.3417C37.7493 17.6896 37.2663 17 36.5723 17H18ZM31.7109 21.8852C32.1214 21.4272 32.0911 20.7155 31.6433 20.2957C31.1955 19.8759 30.4996 19.9068 30.0891 20.3648L24.85 26.2101L22.9109 24.0466C22.5004 23.5886 21.8045 23.5577 21.3567 23.9775C20.9089 24.3974 20.8786 25.109 21.2891 25.567L24.0391 28.6352C24.2475 28.8676 24.5417 29 24.85 29C25.1583 29 25.4525 28.8676 25.6609 28.6352L31.7109 21.8852Z"/>
</mask>
<path fill-rule="evenodd" clip-rule="evenodd" d="M18 17C17.4477 17 17 17.4477 17 18V31C17 31.5523 17.4477 32 18 32H36.5723C37.2663 32 37.7493 31.3104 37.5121 30.6583L35.397 24.8417C35.3167 24.621 35.3167 24.379 35.397 24.1583L37.5121 18.3417C37.7493 17.6896 37.2663 17 36.5723 17H18ZM31.7109 21.8852C32.1214 21.4272 32.0911 20.7155 31.6433 20.2957C31.1955 19.8759 30.4996 19.9068 30.0891 20.3648L24.85 26.2101L22.9109 24.0466C22.5004 23.5886 21.8045 23.5577 21.3567 23.9775C20.9089 24.3974 20.8786 25.109 21.2891 25.567L24.0391 28.6352C24.2475 28.8676 24.5417 29 24.85 29C25.1583 29 25.4525 28.8676 25.6609 28.6352L31.7109 21.8852Z" fill="white"/>
<path d="M37.5121 30.6583L36.5723 31L37.5121 30.6583ZM35.397 24.8417L34.4572 25.1835L34.4572 25.1835L35.397 24.8417ZM35.397 24.1583L34.4572 23.8165L34.4572 23.8165L35.397 24.1583ZM37.5121 18.3417L38.4519 18.6835L38.4519 18.6835L37.5121 18.3417ZM31.6433 20.2957L30.9593 21.0252V21.0252L31.6433 20.2957ZM31.7109 21.8852L30.9662 21.2178L30.9662 21.2178L31.7109 21.8852ZM30.0891 20.3648L30.8338 21.0323L30.0891 20.3648ZM24.85 26.2101L24.1053 26.8776C24.295 27.0892 24.5658 27.2101 24.85 27.2101C25.1342 27.2101 25.405 27.0892 25.5947 26.8776L24.85 26.2101ZM22.9109 24.0466L23.6555 23.3792L22.9109 24.0466ZM21.3567 23.9775L20.6728 23.248H20.6728L21.3567 23.9775ZM21.2891 25.567L22.0338 24.8996L22.0338 24.8996L21.2891 25.567ZM24.0391 28.6352L23.2945 29.3026L23.2945 29.3026L24.0391 28.6352ZM25.6609 28.6352L24.9162 27.9678L24.9162 27.9678L25.6609 28.6352ZM18 18V18V16C16.8954 16 16 16.8954 16 18H18ZM18 31V18H16V31H18ZM18 31H18H16C16 32.1046 16.8954 33 18 33V31ZM36.5723 31H18V33H36.5723V31ZM36.5723 31L36.5723 31V33C37.9602 33 38.9262 31.6209 38.4519 30.3165L36.5723 31ZM34.4572 25.1835L36.5723 31L38.4519 30.3165L36.3368 24.5L34.4572 25.1835ZM34.4572 23.8165C34.2967 24.258 34.2967 24.742 34.4572 25.1835L36.3368 24.5V24.5L34.4572 23.8165ZM36.5723 18L34.4572 23.8165L36.3368 24.5L38.4519 18.6835L36.5723 18ZM36.5723 18V18L38.4519 18.6835C38.9262 17.3791 37.9602 16 36.5723 16V18ZM18 18H36.5723V16H18V18ZM30.9593 21.0252C30.9822 21.0467 30.9981 21.0781 30.9999 21.1186C31.0016 21.1591 30.9883 21.193 30.9662 21.2178L32.4555 22.5526C33.2276 21.6912 33.1729 20.359 32.3272 19.5662L30.9593 21.0252ZM30.8338 21.0323C30.8549 21.0087 30.8766 21.001 30.8966 21.0001C30.9166 20.9992 30.9377 21.0049 30.9593 21.0252L32.3272 19.5662C31.4687 18.7613 30.1282 18.823 29.3445 19.6974L30.8338 21.0323ZM25.5947 26.8776L30.8338 21.0323L29.3445 19.6974L24.1053 25.5427L25.5947 26.8776ZM22.1662 24.7141L24.1053 26.8776L25.5947 25.5427L23.6555 23.3792L22.1662 24.7141ZM22.0407 24.7071C22.0623 24.6867 22.0834 24.681 22.1034 24.6819C22.1234 24.6828 22.1451 24.6905 22.1662 24.7141L23.6555 23.3792C22.8718 22.5048 21.5313 22.4431 20.6728 23.248L22.0407 24.7071ZM22.0338 24.8996C22.0117 24.8749 21.9984 24.8409 22.0001 24.8004C22.0019 24.76 22.0178 24.7285 22.0407 24.7071L20.6728 23.248C19.8271 24.0408 19.7724 25.373 20.5445 26.2345L22.0338 24.8996ZM24.7838 27.9678L22.0338 24.8996L20.5445 26.2345L23.2945 29.3026L24.7838 27.9678ZM24.85 28C24.8299 28 24.8052 27.9916 24.7838 27.9678L23.2945 29.3026C23.6898 29.7437 24.2535 30 24.85 30V28ZM24.9162 27.9678C24.8948 27.9916 24.8701 28 24.85 28V30C25.4465 30 26.0102 29.7437 26.4055 29.3026L24.9162 27.9678ZM30.9662 21.2178L24.9162 27.9678L26.4055 29.3026L32.4555 22.5526L30.9662 21.2178Z" fill="white" mask="url(#path-3-inside-1_3568_7837)"/>
</g>
<defs>
<filter id="filter0_d_3568_7837" x="0" y="0" width="54" height="54" filterUnits="userSpaceOnUse" color-interpolation-filters="sRGB">
<feFlood flood-opacity="0" result="BackgroundImageFix"/>
<feColorMatrix in="SourceAlpha" type="matrix" values="0 0 0 0 0 0 0 0 0 0 0 0 0 0 0 0 0 0 127 0" result="hardAlpha"/>
<feOffset dy="2"/>
<feGaussianBlur stdDeviation="1"/>
<feComposite in2="hardAlpha" operator="out"/>
<feColorMatrix type="matrix" values="0 0 0 0 0 0 0 0 0 0 0 0 0 0 0 0 0 0 0.25 0"/>
<feBlend mode="normal" in2="BackgroundImageFix" result="effect1_dropShadow_3568_7837"/>
<feBlend mode="normal" in="SourceGraphic" in2="effect1_dropShadow_3568_7837" result="shape"/>
</filter>
</defs>
</svg>
