<svg width="22" height="22" viewBox="0 0 22 22" fill="none" xmlns="http://www.w3.org/2000/svg">
<g id="icon 22X22">
<g id="Rectangle 197">
<mask id="path-1-inside-1_1686_18159" fill="white">
<path d="M3 5H19V6H3V5Z"/>
</mask>
<path d="M3 5H19V6H3V5Z" fill="black"/>
<path d="M3 5V4H2V5H3ZM19 5H20V4H19V5ZM19 6V7H20V6H19ZM3 6H2V7H3V6ZM3 6H19V4H3V6ZM18 5V6H20V5H18ZM19 5H3V7H19V5ZM4 6V5H2V6H4Z" fill="#3AB6FF" mask="url(#path-1-inside-1_1686_18159)"/>
</g>
<g id="Rectangle 198">
<mask id="path-3-inside-2_1686_18159" fill="white">
<path d="M3 10H19V11H3V10Z"/>
</mask>
<path d="M3 10H19V11H3V10Z" fill="black"/>
<path d="M3 10V9H2V10H3ZM19 10H20V9H19V10ZM19 11V12H20V11H19ZM3 11H2V12H3V11ZM3 11H19V9H3V11ZM18 10V11H20V10H18ZM19 10H3V12H19V10ZM4 11V10H2V11H4Z" fill="#3AB6FF" mask="url(#path-3-inside-2_1686_18159)"/>
</g>
<g id="Rectangle 200">
<mask id="path-5-inside-3_1686_18159" fill="white">
<path d="M3 15H19V16H3V15Z"/>
</mask>
<path d="M3 15H19V16H3V15Z" fill="black"/>
<path d="M3 15V14H2V15H3ZM19 15H20V14H19V15ZM19 16V17H20V16H19ZM3 16H2V17H3V16ZM3 16H19V14H3V16ZM18 15V16H20V15H18ZM19 15H3V17H19V15ZM4 16V15H2V16H4Z" fill="#3AB6FF" mask="url(#path-5-inside-3_1686_18159)"/>
</g>
<circle id="Ellipse 71" cx="7.5" cy="5.5" r="2" fill="white" stroke="#3AB6FF"/>
<circle id="Ellipse 72" cx="14.5" cy="10.5" r="2" fill="white" stroke="#3AB6FF"/>
<circle id="Ellipse 73" cx="9.5" cy="15.5" r="2" fill="white" stroke="#3AB6FF"/>
</g>
</svg>
